<?xml version="1.0" standalone="no"?>
<!DOCTYPE svg PUBLIC "-//W3C//DTD SVG 20010904//EN"
 "http://www.w3.org/TR/2001/REC-SVG-20010904/DTD/svg10.dtd">
<svg version="1.0" xmlns="http://www.w3.org/2000/svg"
 width="506.000000pt" height="504.000000pt" viewBox="0 0 506.000000 504.000000"
 preserveAspectRatio="xMidYMid meet">

<g transform="translate(0.000000,504.000000) scale(0.100000,-0.100000)"
fill="#000000" stroke="none">
<path d="M2346 4843 c-4 -4 -48 -11 -99 -15 -140 -10 -323 -45 -412 -78 -11
-4 -38 -13 -60 -19 -22 -7 -49 -16 -60 -21 -11 -5 -47 -18 -79 -30 -59 -21
-120 -47 -226 -98 -71 -35 -228 -135 -321 -207 -176 -134 -336 -301 -481 -499
-21 -28 -41 -58 -45 -66 -3 -8 -18 -33 -33 -55 -15 -22 -40 -65 -56 -95 -16
-30 -32 -56 -36 -58 -5 -2 -8 -7 -8 -12 0 -4 -20 -51 -45 -103 -25 -53 -45
-102 -45 -110 0 -7 -4 -17 -9 -22 -17 -19 -82 -223 -101 -320 -62 -314 -69
-449 -40 -775 15 -165 56 -353 112 -515 58 -167 202 -448 296 -580 126 -174
405 -469 537 -566 33 -24 62 -46 65 -49 37 -37 298 -172 425 -220 11 -4 31
-12 45 -18 44 -19 154 -55 193 -64 20 -4 56 -13 80 -19 234 -58 529 -77 807
-50 121 12 147 15 275 41 86 18 237 61 310 90 117 46 179 74 292 131 139 71
153 80 282 173 110 79 322 288 416 410 17 22 47 61 67 88 107 138 244 393 308
573 11 33 25 68 31 77 5 10 9 27 9 37 0 11 4 22 9 25 5 3 11 18 14 33 3 16 10
46 16 68 24 92 42 183 47 235 3 30 9 62 14 70 15 29 12 485 -4 600 -22 151
-72 369 -89 386 -4 4 -7 15 -7 24 0 34 -106 285 -161 383 -22 38 -39 73 -39
78 0 5 -4 9 -8 9 -5 0 -15 12 -23 28 -79 157 -377 488 -569 632 -198 148 -469
292 -684 362 -147 48 -319 86 -421 95 -33 2 -84 9 -114 14 -64 11 -364 12
-375 2z m254 -379 l0 -145 -82 3 -83 3 0 140 0 140 75 5 c41 3 78 4 83 2 4 -2
7 -68 7 -148z m774 -27 c148 -79 221 -122 311 -185 121 -84 205 -155 205 -173
0 -19 -214 -235 -338 -341 -49 -42 -111 -102 -137 -133 -42 -49 -48 -61 -47
-98 2 -56 38 -87 101 -87 42 0 48 4 110 68 36 37 84 89 106 115 22 26 47 47
56 47 16 0 157 -144 195 -198 21 -30 34 -28 87 13 25 19 48 35 50 35 2 0 45
25 95 55 50 30 96 55 101 55 19 0 131 -201 131 -235 0 -36 -51 -76 -205 -156
-49 -26 -94 -54 -99 -62 -6 -10 -4 -26 6 -48 14 -31 34 -101 67 -242 6 -26 11
-60 11 -76 0 -16 5 -52 12 -80 18 -82 20 -81 -219 -81 -233 0 -250 -4 -279
-70 -15 -33 16 -102 52 -119 16 -7 100 -11 241 -11 l215 0 -5 -77 c-10 -129
-48 -295 -97 -418 -24 -59 -32 -86 -29 -89 2 -2 72 -36 154 -76 185 -89 208
-105 200 -133 -26 -92 -143 -247 -187 -247 -9 0 -68 41 -130 91 -150 121 -154
123 -187 79 -42 -56 -173 -204 -186 -212 -16 -10 -76 31 -91 61 -29 57 -122
131 -166 131 -33 0 -84 -41 -95 -77 -10 -32 -8 -39 26 -89 41 -60 136 -148
195 -179 34 -18 286 -262 294 -284 2 -5 -17 -23 -41 -39 -24 -17 -49 -37 -56
-46 -8 -9 -23 -16 -35 -16 -22 0 -29 8 -161 179 -38 49 -77 90 -86 91 -15 0
-50 -17 -174 -84 -47 -26 -154 -69 -210 -87 -22 -6 -49 -15 -60 -19 -56 -20
-94 -30 -116 -30 -14 0 -29 -4 -35 -9 -5 -5 -27 -11 -49 -14 -22 -3 -82 -10
-133 -17 -78 -10 -96 -10 -108 1 -10 10 -13 51 -14 159 -1 80 2 153 5 163 8
18 -11 74 -30 92 -40 37 -80 43 -125 20 -50 -26 -53 -42 -51 -252 l2 -193 -45
0 c-127 0 -373 58 -553 131 -110 44 -124 51 -157 73 -40 27 -137 76 -151 76
-6 0 -62 -63 -125 -139 -69 -84 -122 -140 -133 -140 -19 -1 -117 85 -117 102
0 18 242 262 273 275 40 17 72 44 175 145 73 72 82 85 82 118 0 52 -39 89 -95
89 -43 0 -121 -42 -148 -80 -37 -53 -109 -121 -124 -118 -41 8 -197 222 -278
383 -93 184 -162 439 -167 620 l-3 80 224 5 223 5 29 35 c39 46 38 85 -3 127
l-32 33 -210 0 c-116 0 -217 4 -225 9 -11 7 -13 27 -7 97 8 109 19 159 64 294
43 130 119 290 188 395 53 81 179 235 192 235 12 0 26 -13 77 -75 128 -154
168 -181 232 -162 52 16 70 52 64 129 -1 21 -157 178 -218 219 -24 17 -43 34
-43 39 0 6 -8 10 -18 10 -10 0 -76 59 -147 130 l-129 131 60 59 c32 33 64 60
69 60 6 0 35 -30 65 -66 30 -36 78 -91 106 -122 28 -32 62 -70 76 -86 24 -28
26 -29 56 -15 18 8 32 17 32 21 0 5 5 8 11 8 6 0 31 14 55 31 95 65 344 167
464 191 25 5 70 14 100 20 30 6 91 12 135 12 l80 1 -3 -35 c-1 -19 -7 -62 -12
-95 -5 -33 -14 -94 -20 -135 -7 -41 -15 -93 -20 -115 -5 -22 -13 -78 -20 -125
-6 -47 -17 -125 -25 -175 -7 -49 -19 -130 -25 -180 -6 -49 -14 -101 -16 -115
-8 -40 -23 -131 -30 -188 -7 -51 -9 -55 -63 -92 -134 -92 -217 -231 -242 -409
-11 -81 -11 -101 4 -174 9 -45 17 -87 17 -94 0 -9 -192 -153 -205 -153 -2 0
-37 -25 -77 -55 -40 -30 -87 -62 -104 -70 -45 -21 -92 -78 -100 -121 -8 -44
19 -102 56 -121 70 -35 154 -4 195 73 6 10 76 63 155 116 219 146 188 137 255
73 56 -54 133 -97 229 -130 86 -29 320 -18 361 17 5 4 15 8 23 8 21 0 149 89
167 116 21 32 44 30 91 -7 22 -17 56 -40 77 -50 58 -30 199 -124 227 -152 14
-13 33 -37 44 -52 18 -26 22 -27 86 -23 60 3 70 7 93 33 17 20 26 42 27 64 0
47 -35 115 -66 130 -29 13 -276 170 -284 180 -3 3 -17 12 -31 19 -14 8 -45 30
-69 51 -44 38 -44 38 -30 72 18 41 20 253 4 319 -30 126 -115 244 -246 344
-27 20 -38 36 -38 55 0 14 -9 73 -20 131 -11 58 -25 137 -31 175 -6 39 -14 95
-19 125 -5 30 -12 71 -15 90 -3 19 -12 76 -20 125 -8 50 -19 122 -25 160 -5
39 -17 115 -26 170 -26 160 -29 214 -9 221 23 9 261 -26 310 -45 11 -5 45 -16
75 -26 131 -41 370 -149 478 -216 22 -13 26 -12 58 25 19 22 34 47 34 55 0 24
-166 131 -294 191 -136 63 -166 84 -166 115 0 44 95 195 123 195 5 0 55 -24
111 -53z m-758 -1751 c194 -94 189 -347 -10 -433 -34 -15 -132 -17 -141 -3 -3
6 -16 10 -27 10 -31 0 -84 44 -112 93 -67 118 -21 265 104 336 50 28 124 27
186 -3z m-1838 -159 l3 -87 -188 2 -188 3 -3 71 c-2 50 1 74 11 82 12 10 171
19 312 18 l50 -1 3 -88z m3851 79 c7 -9 11 -42 9 -88 l-3 -73 -185 0 -185 0 0
74 c0 48 5 79 13 88 20 19 335 19 351 -1z m-2027 -2016 c1 -63 2 -133 2 -155
l1 -40 -87 -3 -88 -3 0 154 c0 84 2 156 4 158 3 3 41 4 85 4 l81 0 2 -115z"/>
</g>
</svg>
