<?xml version="1.0" standalone="no"?>
<!DOCTYPE svg PUBLIC "-//W3C//DTD SVG 20010904//EN"
 "http://www.w3.org/TR/2001/REC-SVG-20010904/DTD/svg10.dtd">
<svg version="1.0" xmlns="http://www.w3.org/2000/svg"
 width="540.000000pt" height="614.000000pt" viewBox="0 0 540.000000 614.000000"
 preserveAspectRatio="xMidYMid meet">

<g transform="translate(0.000000,614.000000) scale(0.100000,-0.100000)"
fill="#000000" stroke="none">
<path d="M2590 6016 c-153 -51 -262 -157 -320 -311 -17 -47 -23 -83 -24 -162
l-1 -103 -323 0 c-351 0 -385 -5 -397 -53 -4 -13 -5 -129 -3 -258 l3 -234 32
-47 c36 -50 85 -86 148 -105 31 -10 269 -13 1009 -13 l968 0 64 31 c76 36 127
97 143 169 12 56 6 469 -7 482 -18 18 -155 27 -419 28 l-263 0 0 88 c0 146
-47 260 -150 362 -67 67 -131 105 -210 127 -56 15 -203 15 -250 -1z m237 -333
c64 -51 83 -87 83 -158 0 -48 -5 -70 -23 -96 -88 -131 -287 -109 -343 38 -15
39 -16 52 -5 91 15 57 42 96 95 134 37 27 47 29 98 26 46 -3 66 -11 95 -35z
m842 -682 c37 -35 39 -60 7 -90 l-24 -23 -942 -1 -942 -2 -24 28 c-28 32 -25
57 9 95 l20 22 933 0 932 0 31 -29z"/>
<path d="M1015 5400 c-322 -6 -343 -9 -418 -54 -59 -34 -92 -72 -121 -139
l-26 -58 0 -1389 c0 -765 4 -1390 9 -1390 10 0 250 144 308 185 l41 30 -1
1155 -2 1155 25 45 c56 99 145 126 378 114 l132 -6 2 166 c0 91 1 171 2 178 1
15 24 14 -329 8z"/>
<path d="M4072 5233 l3 -168 225 -5 c243 -5 266 -10 322 -64 62 -60 58 101 60
-2053 l3 -1968 -170 0 -170 0 -3 1182 c-2 936 -5 1183 -15 1183 -6 0 -25 -7
-42 -16 -40 -22 -1427 -716 -2260 -1130 -363 -181 -668 -337 -677 -346 -17
-17 -18 -52 -18 -448 l0 -430 -424 0 c-233 0 -431 -3 -440 -6 -14 -5 -16 -36
-16 -235 0 -213 2 -232 21 -274 30 -64 101 -131 166 -155 53 -20 73 -20 2103
-20 l2049 0 57 21 c67 25 148 100 185 169 l24 45 0 2305 0 2305 -22 48 c-23
49 -72 117 -108 150 -11 10 -45 30 -75 45 l-55 27 -363 3 -362 3 2 -168z
m-130 -3405 c2 -458 1 -839 -1 -846 -2 -10 -53 -12 -225 -10 l-221 3 -3 737
-2 738 152 74 c210 101 282 135 290 135 4 1 8 -374 10 -831z m-870 -158 c1
-308 3 -590 3 -627 l0 -68 -222 -3 -223 -2 -2 272 c-4 439 -4 752 0 771 3 11
65 46 176 100 225 109 239 116 254 116 9 1 12 -118 14 -559z m-874 -281 l-3
-414 -219 -3 c-132 -1 -222 1 -225 7 -4 5 -6 145 -6 310 0 287 1 301 20 320
17 16 254 141 269 141 2 0 37 16 78 34 40 19 76 32 81 27 4 -4 6 -194 5 -422z
m2479 -674 c4 -32 -41 -108 -75 -128 -31 -18 -96 -19 -1852 -18 -1994 2 -1860
-2 -1914 61 -18 22 -26 43 -26 71 l0 39 1933 -2 c1924 -3 1932 -3 1934 -23z"/>
<path d="M4262 4890 l-193 -5 -32 -63 c-60 -117 -163 -200 -300 -242 -65 -20
-85 -20 -1054 -18 l-988 3 -64 23 c-141 51 -232 145 -275 285 -5 15 -22 17
-173 17 -176 -1 -188 -3 -212 -48 -14 -27 -15 -2149 0 -2157 4 -3 26 6 48 20
23 14 43 25 45 25 5 0 111 66 306 191 279 178 391 249 395 249 2 0 40 25 85
56 102 70 780 508 800 517 16 7 138 85 568 365 155 100 284 182 287 182 2 0
36 20 74 45 38 25 72 45 74 45 6 0 170 100 289 176 42 27 107 67 144 89 37 22
95 59 130 83 35 23 65 42 68 42 13 0 176 111 176 120 0 6 -1 9 -2 8 -2 -1 -90
-5 -196 -8z m-2781 -840 c38 0 58 -49 36 -84 -15 -22 -25 -24 -104 -28 -106
-6 -133 6 -133 55 0 59 18 69 110 62 36 -3 77 -5 91 -5z m485 -15 c19 -30 11
-81 -16 -95 -31 -17 -176 -13 -194 6 -19 18 -21 85 -4 102 8 8 46 12 105 12
87 0 93 -1 109 -25z m435 15 c14 -8 19 -21 19 -50 0 -58 -21 -68 -131 -65 -49
1 -92 5 -96 8 -8 9 -7 93 2 106 8 14 180 14 206 1z m473 -6 c9 -8 16 -31 16
-50 0 -46 -27 -56 -144 -52 l-91 3 -3 43 c-5 65 6 72 114 72 71 0 96 -4 108
-16z m-1313 -564 c26 -15 26 -73 -1 -100 -17 -17 -33 -20 -114 -20 -85 0 -95
2 -120 25 -31 29 -33 54 -6 83 19 20 31 22 121 22 55 0 109 -5 120 -10z"/>
<path d="M4285 4235 c-152 -18 -278 -33 -355 -44 -229 -32 -250 -36 -250 -50
0 -4 25 -47 55 -95 31 -49 55 -92 53 -97 -2 -4 -37 -30 -78 -58 -41 -27 -210
-140 -375 -250 -165 -110 -390 -261 -501 -336 -110 -75 -212 -142 -225 -149
-30 -15 -112 -69 -119 -77 -3 -3 -10 -8 -16 -10 -12 -5 -367 -242 -374 -250
-3 -3 -10 -8 -15 -10 -6 -2 -77 -49 -158 -104 -81 -55 -155 -104 -164 -110
-160 -98 -1057 -706 -1080 -732 -52 -58 -43 -101 31 -153 57 -38 86 -38 143 3
25 17 58 41 73 52 178 128 654 450 683 464 7 2 125 79 187 121 97 65 153 100
158 100 4 0 21 11 37 25 17 14 102 72 190 130 88 58 209 138 270 178 291 192
1303 870 1409 945 33 23 63 42 68 42 4 0 33 -37 63 -82 71 -106 80 -118 93
-118 6 0 77 134 157 298 81 163 155 314 165 334 18 36 17 49 -4 47 -6 -1 -60
-7 -121 -14z"/>
</g>
</svg>
