<?xml version="1.0" standalone="no"?>
<!DOCTYPE svg PUBLIC "-//W3C//DTD SVG 20010904//EN"
 "http://www.w3.org/TR/2001/REC-SVG-20010904/DTD/svg10.dtd">
<svg version="1.0" xmlns="http://www.w3.org/2000/svg"
 width="595.000000pt" height="600.000000pt" viewBox="0 0 595.000000 600.000000"
 preserveAspectRatio="xMidYMid meet">
<metadata>
Created by potrace 1.16, written by Peter Selinger 2001-2019
</metadata>
<g transform="translate(0.000000,600.000000) scale(0.100000,-0.100000)"
fill="#000000" stroke="none">
<path d="M2975 5750 c-148 -3 -271 -7 -272 -8 -9 -11 -24 -84 -33 -157 -17
-139 -50 -347 -67 -414 -10 -40 -18 -45 -98 -61 -33 -7 -71 -16 -85 -20 -14
-4 -45 -13 -70 -20 -25 -7 -55 -16 -68 -21 -13 -5 -29 -9 -36 -9 -8 0 -47 46
-87 101 -41 56 -98 131 -128 168 -30 36 -78 99 -107 139 -30 39 -56 72 -59 72
-13 0 -130 -65 -250 -138 -38 -24 -79 -48 -90 -55 -59 -35 -174 -119 -177
-128 -2 -7 13 -46 33 -88 21 -42 51 -105 67 -141 17 -36 51 -110 76 -164 71
-152 77 -129 -69 -269 -70 -67 -134 -123 -141 -125 -12 -3 -231 65 -279 87
-11 5 -76 32 -145 59 -139 56 -148 55 -178 -6 -25 -50 -71 -131 -92 -162 -26
-39 -150 -290 -150 -304 0 -7 19 -26 43 -41 23 -16 67 -47 97 -70 153 -116
259 -194 297 -218 42 -26 56 -58 33 -72 -6 -3 -10 -16 -10 -29 0 -12 -4 -26
-8 -31 -9 -12 -25 -61 -41 -130 -30 -125 -29 -124 -69 -135 -20 -5 -48 -10
-62 -10 -15 0 -102 -11 -195 -24 -94 -14 -194 -27 -224 -30 -29 -2 -57 -8 -61
-13 -12 -12 -21 -423 -12 -523 l7 -85 105 -12 c58 -6 148 -17 200 -23 269 -33
290 -37 290 -65 0 -7 16 -81 36 -164 l36 -151 -28 -23 c-15 -12 -38 -29 -50
-37 -259 -175 -383 -269 -383 -294 -1 -10 23 -64 53 -120 118 -223 150 -282
168 -308 10 -14 18 -30 18 -35 0 -5 14 -25 30 -45 l30 -36 78 30 c42 16 92 36
110 44 79 35 102 44 182 74 47 18 89 36 94 41 15 13 49 10 70 -6 11 -8 23 -15
27 -15 8 0 71 50 124 98 247 226 445 417 445 432 0 4 -17 31 -39 61 -110 154
-210 382 -242 554 -28 148 -36 318 -20 470 9 93 14 120 39 215 93 359 405 728
742 876 108 48 140 61 165 67 11 3 54 14 95 25 136 37 219 45 387 38 87 -3
176 -8 198 -11 39 -6 41 -4 72 42 17 26 73 104 123 173 50 69 138 193 196 277
l105 151 142 -72 c171 -87 252 -132 293 -163 17 -13 34 -23 38 -23 3 0 40 -23
82 -50 42 -28 80 -48 85 -45 5 4 40 70 77 148 61 126 87 183 139 307 9 19 21
48 29 64 8 16 14 30 14 32 0 12 -190 134 -320 207 -25 13 -74 41 -108 61 -35
20 -72 36 -83 36 -11 0 -35 -23 -60 -57 -23 -31 -57 -73 -74 -92 -33 -37 -89
-113 -172 -234 -25 -37 -54 -72 -62 -76 -14 -8 -76 5 -136 29 -11 4 -40 13
-65 20 -25 7 -64 19 -88 26 -23 8 -49 14 -58 14 -23 0 -31 33 -55 215 -12 94
-26 195 -31 225 -5 30 -12 78 -14 107 -9 80 -4 79 -319 73z"/>
<path d="M5180 4605 c-14 -8 -54 -24 -90 -35 -36 -12 -74 -25 -85 -30 -11 -4
-36 -13 -55 -20 -19 -7 -44 -16 -55 -20 -49 -20 -115 -44 -170 -62 l-60 -20
-36 41 c-20 23 -42 41 -47 41 -6 0 -37 -24 -69 -54 -32 -29 -78 -70 -103 -91
-82 -67 -420 -397 -420 -409 0 -6 12 -25 28 -42 107 -118 201 -261 255 -386
20 -47 37 -93 37 -102 0 -8 4 -17 9 -20 5 -3 11 -20 14 -38 3 -18 14 -64 23
-103 26 -103 26 -450 1 -555 -10 -41 -21 -86 -23 -100 -3 -14 -9 -34 -14 -45
-4 -11 -13 -36 -20 -55 -23 -67 -64 -165 -84 -200 -10 -19 -28 -51 -38 -71
-30 -53 -156 -218 -218 -283 -145 -151 -376 -281 -601 -336 -46 -11 -97 -25
-114 -30 -35 -10 -242 -25 -300 -22 -22 2 -85 8 -140 14 -177 18 -189 19 -205
6 -17 -15 -67 -73 -93 -108 -9 -14 -40 -56 -68 -95 -27 -38 -56 -78 -64 -88
-9 -9 -32 -41 -52 -70 -34 -49 -101 -136 -113 -147 -3 -3 -16 -20 -29 -37 -12
-18 -29 -33 -37 -33 -21 0 -235 110 -315 162 -36 24 -94 64 -129 91 -34 26
-68 47 -74 47 -7 0 -18 -10 -24 -22 -7 -13 -16 -30 -22 -38 -17 -26 -115 -203
-132 -240 -9 -19 -28 -62 -43 -95 -15 -33 -34 -75 -43 -94 -11 -23 -12 -38 -5
-50 26 -43 473 -322 515 -321 7 0 27 20 44 43 17 23 56 76 86 117 30 41 77
107 104 145 128 181 114 167 159 160 39 -6 89 -20 130 -36 11 -4 31 -10 45
-13 14 -2 54 -12 91 -21 l65 -16 11 -57 c13 -64 31 -177 38 -237 3 -22 9 -67
14 -100 6 -33 12 -78 16 -100 3 -22 9 -53 13 -70 l8 -30 295 0 294 0 2 35 c2
19 7 64 13 100 11 68 20 134 21 160 1 8 5 37 10 63 5 27 11 74 14 105 3 31 9
71 13 87 9 33 16 36 212 95 58 18 116 36 129 41 44 18 45 17 211 -225 87 -126
184 -246 200 -246 55 0 510 296 510 331 0 8 -14 40 -91 205 -15 33 -47 101
-69 150 -23 49 -48 102 -56 118 -8 16 -14 34 -14 40 1 6 63 74 139 150 l138
139 33 -17 c18 -9 39 -16 45 -16 7 0 39 -12 71 -26 33 -14 69 -30 82 -35 12
-5 34 -14 50 -20 104 -43 263 -101 266 -98 28 36 77 121 134 234 63 124 152
312 152 321 0 2 -66 49 -146 106 -254 179 -307 217 -316 226 -11 11 68 320 86
339 15 16 125 35 534 90 l42 6 0 297 0 297 -42 6 c-24 3 -74 11 -113 16 -122
17 -308 43 -355 48 -52 6 -76 23 -84 61 -3 15 -9 47 -14 72 -6 25 -22 89 -36
143 -30 112 -32 107 48 164 28 20 127 93 219 162 154 115 167 128 162 151 -8
34 -140 293 -224 442 -42 73 -50 80 -81 63z m-399 -1276 c18 -20 29 -43 30
-63 1 -17 3 -47 5 -66 11 -86 10 -385 -1 -480 -14 -121 -23 -149 -61 -179 -32
-25 -57 -27 -94 -4 -56 33 -59 57 -25 216 18 86 16 353 -2 457 -7 35 -7 64 -1
80 28 75 98 93 149 39z"/>
<path d="M2845 4179 c-238 -17 -483 -123 -673 -292 -42 -37 -150 -153 -170
-182 -94 -135 -150 -247 -182 -365 -7 -25 -16 -56 -20 -70 -17 -54 -29 -140
-35 -250 -8 -143 11 -277 61 -436 16 -51 57 -138 67 -142 4 -2 7 -11 7 -20 0
-9 9 -28 20 -42 11 -14 20 -29 20 -33 0 -11 71 -114 104 -152 14 -16 26 -32
26 -36 0 -14 183 -183 240 -222 148 -100 304 -159 467 -178 111 -13 429 -6
488 10 22 6 58 16 80 22 56 16 70 21 158 63 341 160 610 501 676 856 29 159
33 202 27 300 -6 106 -18 204 -31 250 -21 76 -41 132 -66 188 -16 34 -29 65
-29 67 0 14 -100 168 -146 225 -56 70 -191 204 -238 235 -166 112 -332 179
-501 200 -63 8 -262 11 -350 4z m680 -389 c55 -38 79 -66 69 -82 -4 -7 -47
-70 -96 -140 -48 -70 -88 -134 -88 -141 0 -7 11 -24 25 -37 33 -31 117 -155
139 -205 31 -71 34 -80 38 -95 4 -12 32 -14 176 -11 l172 3 0 -106 0 -106
-175 0 c-175 0 -175 0 -175 -22 0 -76 -99 -270 -172 -337 l-21 -20 30 -38 c63
-80 154 -224 148 -233 -4 -6 -36 -33 -73 -61 l-67 -51 -79 84 c-43 45 -90 98
-103 115 -29 38 -52 41 -127 18 -56 -17 -217 -19 -286 -4 -133 29 -120 30
-152 -7 -39 -44 -89 -107 -134 -166 -20 -27 -40 -48 -46 -48 -6 0 -35 23 -65
50 -30 28 -59 50 -64 50 -24 0 -2 50 72 165 l82 126 -36 37 c-69 73 -133 195
-152 289 -4 18 -12 36 -18 40 -6 3 -80 7 -165 8 -95 1 -156 6 -160 12 -4 6 -5
53 -2 104 l5 94 170 1 170 1 6 34 c3 19 15 54 26 79 29 62 140 230 153 230 17
0 11 17 -20 62 -70 99 -140 210 -140 222 0 15 122 116 139 116 6 0 39 -37 75
-82 36 -46 78 -99 95 -119 17 -20 31 -41 31 -47 0 -16 22 -20 60 -10 98 26
179 34 261 26 46 -5 93 -13 104 -18 50 -22 70 -20 86 8 8 15 57 78 108 140
103 125 100 124 176 72z"/>
<path d="M2875 3333 c-105 -27 -206 -110 -253 -206 -33 -69 -42 -106 -42 -183
0 -73 3 -85 45 -179 41 -92 142 -177 249 -210 65 -20 180 -16 246 7 91 33 187
125 235 225 26 52 28 68 29 163 0 98 -2 109 -31 165 -57 109 -128 169 -246
209 -88 29 -145 32 -232 9z"/>
</g>
</svg>
